<svg xmlns="http://www.w3.org/2000/svg" viewBox="0 0 800 450" preserveAspectRatio="xMidYMid slice">
        <defs>
          <radialGradient id="w3bg" cx="50%" cy="50%" r="60%">
            <stop offset="0%" stop-color="#C9973A" stop-opacity="0.1"></stop>
            <stop offset="100%" stop-color="#07101B" stop-opacity="0"></stop>
          </radialGradient>
        </defs>
        <rect width="800" height="450" fill="#07101B"></rect>
        <rect width="800" height="450" fill="url(#w3bg)"></rect>
        <!-- Grid -->
        <g stroke="rgba(255,255,255,0.05)" stroke-width="0.5">
          <line x1="0" y1="100" x2="800" y2="100"></line><line x1="0" y1="180" x2="800" y2="180"></line>
          <line x1="0" y1="260" x2="800" y2="260"></line><line x1="0" y1="340" x2="800" y2="340"></line>
          <line x1="100" y1="0" x2="100" y2="450"></line><line x1="200" y1="0" x2="200" y2="450"></line>
          <line x1="300" y1="0" x2="300" y2="450"></line><line x1="400" y1="0" x2="400" y2="450"></line>
          <line x1="500" y1="0" x2="500" y2="450"></line><line x1="600" y1="0" x2="600" y2="450"></line>
          <line x1="700" y1="0" x2="700" y2="450"></line>
        </g>
        <!-- Sparse data points -->
        <g fill="#C9973A">
          <circle cx="100" cy="180" r="3"></circle>
          <circle cx="200" cy="100" r="2"></circle>
          <circle cx="300" cy="180" r="3.5"></circle>
          <circle cx="400" cy="260" r="2"></circle>
          <circle cx="500" cy="180" r="4"></circle>
          <circle cx="600" cy="100" r="2.5"></circle>
          <circle cx="700" cy="260" r="3"></circle>
          <circle cx="200" cy="340" r="2"></circle>
          <circle cx="500" cy="340" r="2.5"></circle>
        </g>
        <!-- Connecting arc -->
        <path d="M 100 180 Q 250 60 400 160 T 700 220" fill="none" stroke="#C9973A" stroke-width="1" stroke-opacity="0.5"></path>
        <!-- Glass panel -->
        <rect x="540" y="40" width="220" height="100" rx="8" fill="rgba(255,255,255,0.05)" stroke="rgba(255,255,255,0.12)" stroke-width="1"></rect>
        <text x="560" y="68" font-family="JetBrains Mono, monospace" font-size="10" fill="#9CA3AF" letter-spacing="2">RECORDS · LIVE</text>
        <text x="560" y="108" font-family="Playfair Display, serif" font-size="32" fill="#FFFFFF">7.21</text>
        <text x="620" y="92" font-family="Playfair Display, serif" font-size="14" font-style="italic" fill="#C9973A">B+</text>
      </svg>